<svg width="27" height="29" viewBox="0 0 27 29" fill="none" xmlns="http://www.w3.org/2000/svg">
<path d="M5.57622 28.9212C4.70207 28.9212 3.95374 28.6165 3.33123 28.0073C2.70873 27.398 2.39748 26.6656 2.39748 25.8101V5.58784C1.94716 5.58784 1.56968 5.43877 1.26505 5.14062C0.96042 4.84247 0.808105 4.47303 0.808105 4.03228C0.808105 3.59154 0.96042 3.2221 1.26505 2.92395C1.56968 2.6258 1.94716 2.47673 2.39748 2.47673H8.75496C8.75496 2.03599 8.90728 1.66654 9.21191 1.3684C9.51654 1.07025 9.89401 0.921173 10.3443 0.921173H16.7018C17.1521 0.921173 17.5296 1.07025 17.8343 1.3684C18.1389 1.66654 18.2912 2.03599 18.2912 2.47673H24.6487C25.099 2.47673 25.4765 2.6258 25.7811 2.92395C26.0857 3.2221 26.2381 3.59154 26.2381 4.03228C26.2381 4.47303 26.0857 4.84247 25.7811 5.14062C25.4765 5.43877 25.099 5.58784 24.6487 5.58784V25.8101C24.6487 26.6656 24.3374 27.398 23.7149 28.0073C23.0924 28.6165 22.3441 28.9212 21.4699 28.9212H5.57622ZM21.4699 5.58784H5.57622V25.8101H21.4699V5.58784ZM13.5231 17.8767L16.5429 20.8323C16.8343 21.1175 17.2051 21.2601 17.6554 21.2601C18.1058 21.2601 18.4766 21.1175 18.768 20.8323C19.0594 20.5471 19.2051 20.1841 19.2051 19.7434C19.2051 19.3027 19.0594 18.9397 18.768 18.6545L15.7482 15.699L18.768 12.7434C19.0594 12.4582 19.2051 12.0952 19.2051 11.6545C19.2051 11.2138 19.0594 10.8508 18.768 10.5656C18.4766 10.2804 18.1058 10.1378 17.6554 10.1378C17.2051 10.1378 16.8343 10.2804 16.5429 10.5656L13.5231 13.5212L10.5033 10.5656C10.2119 10.2804 9.84104 10.1378 9.39071 10.1378C8.94039 10.1378 8.56954 10.2804 8.27815 10.5656C7.98677 10.8508 7.84108 11.2138 7.84108 11.6545C7.84108 12.0952 7.98677 12.4582 8.27815 12.7434L11.298 15.699L8.27815 18.6545C7.98677 18.9397 7.84108 19.3027 7.84108 19.7434C7.84108 20.1841 7.98677 20.5471 8.27815 20.8323C8.56954 21.1175 8.94039 21.2601 9.39071 21.2601C9.84104 21.2601 10.2119 21.1175 10.5033 20.8323L13.5231 17.8767Z" fill="white"/>
</svg>
