<svg width="196" height="17" viewBox="0 0 196 17" fill="none" xmlns="http://www.w3.org/2000/svg">
<path d="M192.099 11.8428C192.099 11.5993 192.063 11.3809 191.991 11.1875C191.92 10.987 191.787 10.8008 191.594 10.6289C191.4 10.457 191.121 10.2852 190.756 10.1133C190.398 9.93424 189.925 9.74805 189.338 9.55469C188.65 9.32552 187.988 9.06771 187.351 8.78125C186.713 8.48763 186.144 8.14746 185.643 7.76074C185.141 7.36686 184.744 6.90853 184.45 6.38574C184.157 5.85579 184.01 5.23991 184.01 4.53809C184.01 3.86491 184.16 3.25977 184.461 2.72266C184.762 2.17839 185.181 1.71647 185.718 1.33691C186.262 0.950195 186.899 0.656576 187.63 0.456055C188.36 0.248372 189.159 0.144531 190.025 0.144531C191.171 0.144531 192.181 0.345052 193.055 0.746094C193.936 1.13997 194.623 1.70215 195.117 2.43262C195.618 3.15592 195.869 4.01172 195.869 5H192.12C192.12 4.60612 192.038 4.25879 191.873 3.95801C191.715 3.65723 191.476 3.4209 191.153 3.24902C190.831 3.07715 190.426 2.99121 189.939 2.99121C189.467 2.99121 189.069 3.06283 188.747 3.20605C188.425 3.34928 188.181 3.54264 188.017 3.78613C187.852 4.02246 187.77 4.28385 187.77 4.57031C187.77 4.80664 187.834 5.02148 187.963 5.21484C188.099 5.40104 188.289 5.5765 188.532 5.74121C188.783 5.90592 189.084 6.06348 189.435 6.21387C189.793 6.36426 190.194 6.51107 190.638 6.6543C191.468 6.91927 192.206 7.21647 192.851 7.5459C193.502 7.86816 194.05 8.23698 194.494 8.65234C194.945 9.06055 195.285 9.52604 195.515 10.0488C195.751 10.5716 195.869 11.1624 195.869 11.8213C195.869 12.5231 195.733 13.1462 195.461 13.6904C195.189 14.2347 194.799 14.6966 194.29 15.0762C193.782 15.4486 193.173 15.7314 192.464 15.9248C191.755 16.1182 190.964 16.2148 190.09 16.2148C189.288 16.2148 188.496 16.1146 187.716 15.9141C186.942 15.7064 186.241 15.3913 185.61 14.9688C184.98 14.5391 184.475 13.9912 184.096 13.3252C183.723 12.652 183.537 11.8535 183.537 10.9297H187.318C187.318 11.388 187.379 11.7747 187.501 12.0898C187.623 12.4049 187.802 12.6592 188.038 12.8525C188.274 13.0387 188.564 13.1748 188.908 13.2607C189.252 13.3395 189.646 13.3789 190.09 13.3789C190.57 13.3789 190.956 13.3109 191.25 13.1748C191.544 13.0316 191.758 12.8454 191.895 12.6162C192.031 12.3799 192.099 12.1221 192.099 11.8428Z" fill="#4E9DFF"/>
<path d="M173.08 0.359375V16H169.31V0.359375H173.08ZM182.415 0.359375L176.356 8.28711L172.812 12.165L172.124 8.70605L174.391 5.26855L177.764 0.359375H182.415ZM177.957 16L173.918 8.95312L176.851 6.79395L182.415 16H177.957Z" fill="#4E9DFF"/>
<path d="M163.106 10.7041H166.866C166.816 11.7926 166.522 12.7523 165.985 13.583C165.448 14.4137 164.703 15.0618 163.751 15.5273C162.806 15.9857 161.688 16.2148 160.399 16.2148C159.354 16.2148 158.419 16.0394 157.596 15.6885C156.779 15.3376 156.085 14.8327 155.512 14.1738C154.946 13.515 154.513 12.7165 154.212 11.7783C153.918 10.8402 153.771 9.78385 153.771 8.60938V7.76074C153.771 6.58626 153.925 5.52995 154.233 4.5918C154.549 3.64648 154.993 2.8444 155.565 2.18555C156.146 1.51953 156.84 1.01107 157.649 0.660156C158.459 0.309245 159.357 0.133789 160.346 0.133789C161.706 0.133789 162.856 0.377279 163.794 0.864258C164.732 1.35124 165.459 2.02083 165.975 2.87305C166.49 3.7181 166.795 4.68132 166.888 5.7627H163.128C163.114 5.17546 163.013 4.6849 162.827 4.29102C162.641 3.88997 162.347 3.58919 161.946 3.38867C161.545 3.18815 161.012 3.08789 160.346 3.08789C159.88 3.08789 159.476 3.17383 159.132 3.3457C158.788 3.51758 158.502 3.78971 158.272 4.16211C158.043 4.53451 157.871 5.0179 157.757 5.6123C157.649 6.19954 157.596 6.90853 157.596 7.73926V8.60938C157.596 9.4401 157.646 10.1491 157.746 10.7363C157.846 11.3236 158.007 11.8034 158.229 12.1758C158.451 12.5482 158.738 12.8239 159.089 13.0029C159.447 13.1748 159.884 13.2607 160.399 13.2607C160.972 13.2607 161.456 13.1712 161.85 12.9922C162.243 12.806 162.548 12.5267 162.763 12.1543C162.978 11.7747 163.092 11.2913 163.106 10.7041Z" fill="#4E9DFF"/>
<path d="M151.597 7.86816V8.50195C151.597 9.69792 151.428 10.7721 151.092 11.7246C150.762 12.6699 150.293 13.4792 149.685 14.1523C149.076 14.8184 148.356 15.3304 147.525 15.6885C146.695 16.0394 145.778 16.2148 144.775 16.2148C143.766 16.2148 142.842 16.0394 142.004 15.6885C141.173 15.3304 140.45 14.8184 139.834 14.1523C139.225 13.4792 138.753 12.6699 138.416 11.7246C138.087 10.7721 137.922 9.69792 137.922 8.50195V7.86816C137.922 6.6722 138.087 5.59798 138.416 4.64551C138.753 3.69303 139.222 2.88379 139.823 2.21777C140.432 1.5446 141.152 1.03255 141.982 0.681641C142.82 0.323568 143.744 0.144531 144.754 0.144531C145.757 0.144531 146.673 0.323568 147.504 0.681641C148.342 1.03255 149.065 1.5446 149.674 2.21777C150.283 2.88379 150.755 3.69303 151.092 4.64551C151.428 5.59798 151.597 6.6722 151.597 7.86816ZM147.772 8.50195V7.84668C147.772 7.07324 147.704 6.3929 147.568 5.80566C147.439 5.21126 147.246 4.71354 146.988 4.3125C146.73 3.91146 146.412 3.61068 146.032 3.41016C145.66 3.20247 145.234 3.09863 144.754 3.09863C144.253 3.09863 143.816 3.20247 143.443 3.41016C143.071 3.61068 142.759 3.91146 142.509 4.3125C142.258 4.71354 142.068 5.21126 141.939 5.80566C141.818 6.3929 141.757 7.07324 141.757 7.84668V8.50195C141.757 9.26823 141.818 9.94857 141.939 10.543C142.068 11.1302 142.258 11.6279 142.509 12.0361C142.767 12.4443 143.082 12.7523 143.454 12.96C143.834 13.1676 144.274 13.2715 144.775 13.2715C145.255 13.2715 145.681 13.1676 146.054 12.96C146.426 12.7523 146.738 12.4443 146.988 12.0361C147.246 11.6279 147.439 11.1302 147.568 10.543C147.704 9.94857 147.772 9.26823 147.772 8.50195Z" fill="#4E9DFF"/>
<path d="M136.801 13.0996V16H128.895V13.0996H136.801ZM130.237 0.359375V16H126.467V0.359375H130.237Z" fill="#4E9DFF"/>
<path d="M117.986 9.35059H113.958L113.937 6.87988H117.202C117.789 6.87988 118.258 6.81543 118.609 6.68652C118.96 6.55046 119.215 6.35352 119.372 6.0957C119.537 5.83789 119.619 5.51562 119.619 5.12891C119.619 4.6849 119.537 4.32682 119.372 4.05469C119.207 3.78255 118.946 3.58561 118.588 3.46387C118.237 3.33496 117.782 3.27051 117.224 3.27051H115.376V16H111.605V0.359375H117.224C118.19 0.359375 119.053 0.448893 119.812 0.62793C120.572 0.799805 121.216 1.06478 121.746 1.42285C122.283 1.78092 122.691 2.2321 122.971 2.77637C123.25 3.31348 123.39 3.94727 123.39 4.67773C123.39 5.3151 123.254 5.91309 122.981 6.47168C122.709 7.03027 122.255 7.48503 121.617 7.83594C120.987 8.17969 120.124 8.35872 119.028 8.37305L117.986 9.35059ZM117.836 16H113.045L114.334 13.0996H117.836C118.352 13.0996 118.763 13.0208 119.071 12.8633C119.386 12.6986 119.612 12.4837 119.748 12.2188C119.891 11.9466 119.963 11.6458 119.963 11.3164C119.963 10.9154 119.895 10.568 119.759 10.2744C119.63 9.98079 119.422 9.75521 119.136 9.59766C118.849 9.43294 118.466 9.35059 117.986 9.35059H114.817L114.839 6.87988H118.631L119.512 7.86816C120.557 7.8252 121.384 7.97201 121.993 8.30859C122.609 8.64518 123.049 9.08919 123.314 9.64062C123.579 10.1921 123.712 10.7686 123.712 11.3701C123.712 12.3942 123.49 13.25 123.046 13.9375C122.609 14.625 121.954 15.1406 121.08 15.4844C120.206 15.8281 119.125 16 117.836 16Z" fill="#4E9DFF"/>
<path d="M108.743 7.64258V14.0664C108.478 14.36 108.07 14.6751 107.519 15.0117C106.974 15.3411 106.287 15.624 105.456 15.8604C104.625 16.0967 103.648 16.2148 102.523 16.2148C101.485 16.2148 100.543 16.0501 99.6982 15.7207C98.8532 15.3841 98.1263 14.8936 97.5176 14.249C96.916 13.5973 96.4505 12.8024 96.1211 11.8643C95.7988 10.9189 95.6377 9.83757 95.6377 8.62012V7.75C95.6377 6.53255 95.8024 5.45117 96.1318 4.50586C96.4613 3.56055 96.9232 2.76562 97.5176 2.12109C98.1191 1.4694 98.8245 0.97526 99.6338 0.638672C100.45 0.302083 101.345 0.133789 102.319 0.133789C103.759 0.133789 104.93 0.362956 105.832 0.821289C106.734 1.27246 107.418 1.89909 107.884 2.70117C108.349 3.49609 108.632 4.41634 108.732 5.46191H105.112C105.041 4.94629 104.905 4.50944 104.704 4.15137C104.511 3.78613 104.231 3.51042 103.866 3.32422C103.501 3.13086 103.028 3.03418 102.448 3.03418C101.997 3.03418 101.585 3.13086 101.213 3.32422C100.848 3.51758 100.536 3.8112 100.278 4.20508C100.021 4.5918 99.82 5.07878 99.6768 5.66602C99.5407 6.25326 99.4727 6.94076 99.4727 7.72852V8.62012C99.4727 9.40072 99.5371 10.0846 99.666 10.6719C99.8021 11.2591 100.003 11.7497 100.268 12.1436C100.54 12.5303 100.883 12.8239 101.299 13.0244C101.721 13.2178 102.219 13.3145 102.792 13.3145C103.193 13.3145 103.537 13.2822 103.823 13.2178C104.11 13.1462 104.346 13.0602 104.532 12.96C104.726 12.8525 104.872 12.7523 104.973 12.6592V10.2314H102.352V7.64258H108.743Z" fill="white"/>
<path d="M92.9043 0.359375V16H89.1445L83.6123 6.26758V16H79.8418V0.359375H83.6123L89.1445 10.0918V0.359375H92.9043Z" fill="white"/>
<path d="M76.5283 0.359375V16H72.7686V0.359375H76.5283Z" fill="white"/>
<path d="M69.4766 0.359375V16H65.7168L60.1846 6.26758V16H56.4141V0.359375H60.1846L65.7168 10.0918V0.359375H69.4766Z" fill="white"/>
<path d="M41.4033 0.359375H47.5586C48.7617 0.359375 49.8073 0.538411 50.6953 0.896484C51.5833 1.25456 52.2673 1.78451 52.7471 2.48633C53.234 3.18815 53.4775 4.05469 53.4775 5.08594C53.4775 5.98112 53.3379 6.72949 53.0586 7.33105C52.7793 7.93262 52.389 8.43034 51.8877 8.82422C51.3936 9.21094 50.8171 9.52962 50.1582 9.78027L48.9229 10.4785H43.7559L43.7344 7.56738H47.5586C48.0384 7.56738 48.4359 7.48145 48.751 7.30957C49.0661 7.1377 49.3024 6.89421 49.46 6.5791C49.6247 6.25684 49.707 5.8737 49.707 5.42969C49.707 4.97852 49.6247 4.5918 49.46 4.26953C49.2952 3.94727 49.0518 3.7002 48.7295 3.52832C48.4144 3.35645 48.0241 3.27051 47.5586 3.27051H45.1738V16H41.4033V0.359375ZM49.9648 16L46.5059 9.08203L50.502 9.06055L54.0039 15.8389V16H49.9648Z" fill="white"/>
<path d="M32.375 3.64648L28.5615 16H24.5117L30.2588 0.359375H32.8262L32.375 3.64648ZM35.5332 16L31.709 3.64648L31.2148 0.359375H33.8145L39.5938 16H35.5332ZM35.3828 10.167V13.0781H27.3584V10.167H35.3828Z" fill="white"/>
<path d="M23.54 13.0996V16H15.2041V13.0996H23.54ZM16.5469 0.359375V16H12.7764V0.359375H16.5469ZM22.4658 6.56836V9.37207H15.2041V6.56836H22.4658ZM23.5723 0.359375V3.27051H15.2041V0.359375H23.5723Z" fill="white"/>
<path d="M10.5264 13.0996V16H2.62012V13.0996H10.5264ZM3.96289 0.359375V16H0.192383V0.359375H3.96289Z" fill="white"/>
</svg>
