<svg width="25" height="25" viewBox="0 0 25 25" fill="none" xmlns="http://www.w3.org/2000/svg">
<path d="M11.0734 2.00861C11.5224 0.626642 13.4776 0.626641 13.9266 2.00861L15.5044 6.86475C15.8391 7.8948 16.799 8.5922 17.8821 8.5922L22.9881 8.5922C24.4412 8.5922 25.0454 10.4516 23.8698 11.3057L19.7389 14.307C18.8627 14.9436 18.4961 16.072 18.8307 17.1021L20.4086 21.9582C20.8576 23.3402 19.2759 24.4894 18.1003 23.6353L13.9695 20.634C13.0932 19.9974 11.9068 19.9974 11.0305 20.634L6.89966 23.6353C5.72409 24.4894 4.14237 23.3402 4.5914 21.9582L6.16925 17.1021C6.50394 16.072 6.13729 14.9436 5.26107 14.307L1.1302 11.3057C-0.045373 10.4516 0.558788 8.5922 2.01188 8.5922L7.11792 8.5922C8.20099 8.5922 9.16088 7.8948 9.49556 6.86475L11.0734 2.00861Z" stroke="#656565"/>
</svg>
