<svg width="79" height="85" viewBox="0 0 79 85" fill="none" xmlns="http://www.w3.org/2000/svg">
<g clipPath="url(#clip0_29266_310)">
<path d="M17.0142 0.384033H20.5181V4.13659H23.7478V0.384033H27.2517V11.7404H23.7478V7.95497H20.5485V11.7404H17.0142M31.8829 4.1695H28.7903V0.384033H38.4946V4.1695H35.3868V11.7404H31.8829M40.0333 0.384033H43.7048L45.9595 4.38346L48.2142 0.384033H51.8856V11.7404H48.3817V6.11161L45.929 10.1933L43.4763 6.11161V11.7404H40.0333M53.6224 0.384033H57.1263V7.98789H62.0927V11.7404H53.6224" fill="white"/>
<path d="M16.8921 77.9039L11.8647 16.9414H67.1351L62.1077 77.871L39.4542 84.6519" fill="#E44D26"/>
<path d="M39.5 79.4675V21.9448H62.0926L57.7812 73.9539" fill="#F16529"/>
<path d="M22.1328 29.4004H39.5V36.8726H29.7195L30.3594 44.5258H39.5V51.9815H24.0219M24.3266 55.7341H31.2734L31.7609 61.7086L39.5 63.9469V71.7483L25.3016 67.4691" fill="#EBEBEB"/>
<path d="M56.8064 29.4004H39.4697V36.8726H56.1666M55.542 44.5258H39.4697V51.998H48.001L47.1936 61.7086L39.4697 63.9469V71.7154L53.6377 67.4691" fill="white"/>
</g>
<defs>
<clipPath id="clip0_29266_310">
<rect width="78" height="84.2679" fill="white" transform="translate(0.5 0.384033)"/>
</clipPath>
</defs>
</svg>
